<svg xmlns="http://www.w3.org/2000/svg" viewBox="0 0 190 100"><rect width="190" height="100" fill="#b22234"/><g fill="#fff"><rect y="7.692308" width="190" height="7.692308"/><rect y="23.076923" width="190" height="7.692308"/><rect y="38.461538" width="190" height="7.692308"/><rect y="53.846154" width="190" height="7.692308"/><rect y="69.230769" width="190" height="7.692308"/><rect y="84.615385" width="190" height="7.692308"/></g><rect width="76" height="53.846" fill="#3c3b6e"/><g fill="#fff"><circle cx="7" cy="6" r="1.8"/><circle cx="19" cy="6" r="1.8"/><circle cx="31" cy="6" r="1.8"/><circle cx="43" cy="6" r="1.8"/><circle cx="55" cy="6" r="1.8"/><circle cx="67" cy="6" r="1.8"/><circle cx="7" cy="16" r="1.8"/><circle cx="19" cy="16" r="1.8"/><circle cx="31" cy="16" r="1.8"/><circle cx="43" cy="16" r="1.8"/><circle cx="55" cy="16" r="1.8"/><circle cx="67" cy="16" r="1.8"/><circle cx="7" cy="26" r="1.8"/><circle cx="19" cy="26" r="1.8"/><circle cx="31" cy="26" r="1.8"/><circle cx="43" cy="26" r="1.8"/><circle cx="55" cy="26" r="1.8"/><circle cx="67" cy="26" r="1.8"/><circle cx="7" cy="36" r="1.8"/><circle cx="19" cy="36" r="1.8"/><circle cx="31" cy="36" r="1.8"/><circle cx="43" cy="36" r="1.8"/><circle cx="55" cy="36" r="1.8"/><circle cx="67" cy="36" r="1.8"/><circle cx="7" cy="46" r="1.8"/><circle cx="19" cy="46" r="1.8"/><circle cx="31" cy="46" r="1.8"/><circle cx="43" cy="46" r="1.8"/><circle cx="55" cy="46" r="1.8"/><circle cx="67" cy="46" r="1.8"/><circle cx="13" cy="0" r="1.8"/><circle cx="25" cy="0" r="1.8"/><circle cx="37" cy="0" r="1.8"/><circle cx="49" cy="0" r="1.8"/><circle cx="61" cy="0" r="1.8"/><circle cx="13" cy="10" r="1.8"/><circle cx="25" cy="10" r="1.8"/><circle cx="37" cy="10" r="1.8"/><circle cx="49" cy="10" r="1.8"/><circle cx="61" cy="10" r="1.8"/><circle cx="13" cy="20" r="1.8"/><circle cx="25" cy="20" r="1.8"/><circle cx="37" cy="20" r="1.8"/><circle cx="49" cy="20" r="1.8"/><circle cx="61" cy="20" r="1.8"/><circle cx="13" cy="30" r="1.8"/><circle cx="25" cy="30" r="1.8"/><circle cx="37" cy="30" r="1.8"/><circle cx="49" cy="30" r="1.8"/><circle cx="61" cy="30" r="1.8"/><circle cx="13" cy="40" r="1.8"/><circle cx="25" cy="40" r="1.8"/><circle cx="37" cy="40" r="1.8"/><circle cx="49" cy="40" r="1.8"/><circle cx="61" cy="40" r="1.8"/></g></svg>