<svg width="432" height="73" viewBox="0 0 432 73" xmlns="http://www.w3.org/2000/svg"><defs><linearGradient x1="5.88%" y1="50.3%" x2="314.39%" y2="50.3%" id="a"><stop stop-color="#FFF" offset="0%"/><stop stop-color="#A4A4A4" offset="100%"/></linearGradient><linearGradient x1="50.09%" y1="60.09%" x2="49.19%" y2="-52.66%" id="b"><stop stop-color="#CCC" offset="0%"/><stop stop-color="gray" offset="100%"/></linearGradient><linearGradient x1="45.43%" y1="137.34%" x2="56.86%" y2="-81.22%" id="c"><stop stop-color="#CCC" offset="0%"/><stop stop-color="gray" offset="100%"/></linearGradient><linearGradient x1="50.04%" y1="-22.04%" x2="50.04%" y2="145.97%" id="d"><stop stop-color="#FFF" offset="0%"/><stop stop-color="#A4A4A4" offset="100%"/></linearGradient><linearGradient x1="50.2%" y1="388.39%" x2="50.2%" y2="142.04%" id="e"><stop stop-color="#FFF" offset="0%"/><stop stop-color="#A4A4A4" offset="100%"/></linearGradient><linearGradient x1="3.72%" y1="50.26%" x2="235.93%" y2="50.26%" id="f"><stop stop-color="#FFF" offset="0%"/><stop stop-color="#A4A4A4" offset="100%"/></linearGradient><linearGradient x1="50.08%" y1="60.13%" x2="49.19%" y2="-52.84%" id="g"><stop stop-color="#CCC" offset="0%"/><stop stop-color="gray" offset="100%"/></linearGradient><linearGradient x1="45.43%" y1="137.45%" x2="56.86%" y2="-81.42%" id="h"><stop stop-color="#CCC" offset="0%"/><stop stop-color="gray" offset="100%"/></linearGradient><linearGradient x1="50.02%" y1="97.16%" x2="50.02%" y2="-181.58%" id="i"><stop stop-color="#FFF" offset="0%"/><stop stop-color="#A4A4A4" offset="100%"/></linearGradient><linearGradient x1="121.13%" y1="145.71%" x2="47.41%" y2="37.07%" id="j"><stop stop-color="#FFF" offset="0%"/><stop stop-color="#A4A4A4" offset="100%"/></linearGradient><linearGradient x1="10.11%" y1="50.26%" x2="228.31%" y2="50.26%" id="k"><stop stop-color="#FFF" offset="0%"/><stop stop-color="#A4A4A4" offset="100%"/></linearGradient><linearGradient x1="50.09%" y1="60.13%" x2="49.19%" y2="-52.84%" id="l"><stop stop-color="#CCC" offset="0%"/><stop stop-color="gray" offset="100%"/></linearGradient><linearGradient x1="45.42%" y1="137.45%" x2="56.86%" y2="-81.42%" id="m"><stop stop-color="#CCC" offset="0%"/><stop stop-color="gray" offset="100%"/></linearGradient><linearGradient x1="50%" y1="97.27%" x2="50%" y2="-181.33%" id="n"><stop stop-color="#FFF" offset="0%"/><stop stop-color="#A4A4A4" offset="100%"/></linearGradient><linearGradient x1="50.11%" y1="248.53%" x2="50.11%" y2="2.16%" id="o"><stop stop-color="#FFF" offset="0%"/><stop stop-color="#A4A4A4" offset="100%"/></linearGradient><linearGradient x1="39.64%" y1="45.88%" x2="91.27%" y2="65.17%" id="p"><stop stop-color="#F2F2F2" offset="0%"/><stop stop-color="#A4A4A4" offset="100%"/></linearGradient><linearGradient x1="49.81%" y1="127.85%" x2="49.81%" y2="-.65%" id="q"><stop stop-color="#CCC" offset="0%"/><stop stop-color="gray" offset="100%"/></linearGradient><linearGradient x1="87.7%" y1="132.28%" x2="40.92%" y2="30.29%" id="r"><stop stop-color="#CCC" offset="0%"/><stop stop-color="gray" offset="100%"/></linearGradient><linearGradient x1="53.43%" y1="19.13%" x2="41.59%" y2="229.34%" id="s"><stop stop-color="#F2F2F2" offset="0%"/><stop stop-color="#A4A4A4" offset="100%"/></linearGradient><linearGradient x1="121.56%" y1="41.96%" x2="9.73%" y2="51.87%" id="t"><stop stop-color="#CCC" offset="0%"/><stop stop-color="gray" offset="100%"/></linearGradient><linearGradient x1="44.83%" y1=".05%" x2="78.54%" y2="327.05%" id="u"><stop stop-color="#FFF" offset="0%"/><stop stop-color="#A4A4A4" offset="100%"/></linearGradient><linearGradient x1="49.92%" y1="60.04%" x2="50.83%" y2="-52.95%" id="v"><stop stop-color="#CCC" offset="0%"/><stop stop-color="gray" offset="100%"/></linearGradient><linearGradient x1="54.64%" y1="137.49%" x2="43.1%" y2="-81.55%" id="w"><stop stop-color="#CCC" offset="0%"/><stop stop-color="gray" offset="100%"/></linearGradient><linearGradient x1="50.18%" y1="-22.18%" x2="50.18%" y2="145.85%" id="x"><stop stop-color="#CCC" offset="0%"/><stop stop-color="gray" offset="100%"/></linearGradient><linearGradient x1="6.49%" y1="67.66%" x2="166.25%" y2="-29.98%" id="y"><stop stop-color="#FFF" offset="0%"/><stop stop-color="#A4A4A4" offset="100%"/></linearGradient><linearGradient x1="134.03%" y1="51.68%" x2="14.88%" y2="49.37%" id="z"><stop stop-color="#CCC" offset="0%"/><stop stop-color="gray" offset="100%"/></linearGradient><linearGradient x1="12.2%" y1="49.42%" x2="263.79%" y2="52.66%" id="A"><stop stop-color="#F2F2F2" offset="0%"/><stop stop-color="#A4A4A4" offset="100%"/></linearGradient><linearGradient x1="195.61%" y1="57.49%" x2="143.29%" y2="55.37%" id="B"><stop stop-color="#F2F2F2" offset="0%"/><stop stop-color="#A4A4A4" offset="100%"/></linearGradient><linearGradient x1="-29.48%" y1="41.37%" x2="260.35%" y2="69.94%" id="C"><stop stop-color="#F2F2F2" offset="0%"/><stop stop-color="#A4A4A4" offset="100%"/></linearGradient><linearGradient x1="49.93%" y1="127.85%" x2="49.93%" y2="-.64%" id="D"><stop stop-color="#CCC" offset="0%"/><stop stop-color="gray" offset="100%"/></linearGradient><linearGradient x1="-19.2%" y1="49.12%" x2="423.09%" y2="54.8%" id="E"><stop stop-color="#F2F2F2" offset="0%"/><stop stop-color="#A4A4A4" offset="100%"/></linearGradient><linearGradient x1="64.55%" y1="100.98%" x2="28.9%" y2="4.79%" id="F"><stop stop-color="#CCC" offset="0%"/><stop stop-color="gray" offset="100%"/></linearGradient><linearGradient x1="58.55%" y1="591.89%" x2="42.62%" y2="-383.48%" id="G"><stop stop-color="#F2F2F2" offset="0%"/><stop stop-color="#A4A4A4" offset="100%"/></linearGradient><linearGradient x1="53.85%" y1="51.05%" x2="22.09%" y2="42.72%" id="H"><stop stop-color="#F2F2F2" offset="0%"/><stop stop-color="#A4A4A4" offset="100%"/></linearGradient><linearGradient x1="95.19%" y1="120.42%" x2="-3.34%" y2="-54.98%" id="I"><stop stop-color="#CCC" offset="0%"/><stop stop-color="gray" offset="100%"/></linearGradient></defs><g fill="none" fill-rule="evenodd"><path d="M89.6 52.55V31.49h-2.84v-.94h9.26v.93H93.2v21.07h2.82v.94h-9.26v-.94h2.83m10.68 0V40.88H98v-.94h5.32v1.8a5.08 5.08 0 0 1 4.29-2.16c1.55 0 2.73.5 3.54 1.54.43.56.68 1.2.76 1.93.05.55.08 1.24.08 2.08v7.39h2.25v.94h-7.34v-.94h2.03V47.5c0-3.36-.21-5.35-.62-5.95-.37-.54-.93-.81-1.68-.81-1.05 0-1.87.43-2.47 1.3a4.64 4.64 0 0 0-.66 2.1 35.48 35.48 0 0 0-.22 4.45v3.9h2.02v.95H98v-.94h2.27m21.17-11.85c-.52 0-1 .16-1.46.5a2 2 0 0 0-.75.96c-.25.85-.38 2.27-.38 4.24 0 2.75.12 4.37.35 4.86.46 1 1.21 1.48 2.25 1.48a2.8 2.8 0 0 0 2.21-1.16c.94-1.15 1.41-2.77 1.41-4.85 0-2-.43-3.57-1.3-4.69-.69-.88-1.46-1.32-2.33-1.32zm6.74-10.1v22h2.27v.94h-5.32v-2.62a5.73 5.73 0 0 1-.88 1.48 3.88 3.88 0 0 1-3.08 1.48 5.01 5.01 0 0 1-3.9-1.97 7.74 7.74 0 0 1-1.81-5.2c0-2.3.7-4.14 2.15-5.53a4.85 4.85 0 0 1 3.46-1.54c1.63 0 2.98.94 4.04 2.82V31.5h-2.27v-.94h5.3zm7.73.5c.61 0 1.1.22 1.44.65.35.42.52.84.52 1.26 0 .53-.22 1-.66 1.43-.37.36-.8.54-1.31.54s-.94-.18-1.3-.55a1.94 1.94 0 0 1-.56-1.45c0-.56.19-1.03.57-1.42.3-.3.73-.45 1.3-.45zm-1.39 21.5V40.88h-2.27v-.94h5.32v12.6h2.25v.95h-7.57v-.94h2.27zm15.14-5.83c-1.61.06-2.77.32-3.48.75-1.01.61-1.52 1.45-1.52 2.53 0 .7.2 1.23.61 1.6.36.32.84.47 1.45.47 1.03 0 1.83-.48 2.42-1.46.36-.6.53-1.7.53-3.33v-.55zm4.77 5.4l.4.68a3.33 3.33 0 0 1-2.34 1.03c-1.68 0-2.62-.9-2.83-2.7a5.17 5.17 0 0 1-1.04 1.37 4.8 4.8 0 0 1-3.34 1.34 3.75 3.75 0 0 1-2.84-1.09 2.94 2.94 0 0 1-.76-2.13c0-1.78 1.03-3.1 3.1-3.95a14.3 14.3 0 0 1 4.91-.79v-2.24c0-.97-.03-1.58-.08-1.83-.19-.92-.93-1.38-2.2-1.38-.76 0-1.45.2-2.08.6-.3.18-.46.4-.46.61 0 .11.06.24.17.37.31.37.47.73.47 1.08 0 .43-.13.78-.38 1.04-.26.3-.6.44-1 .44s-.72-.12-.99-.37a1.41 1.41 0 0 1-.48-1.14c0-.73.36-1.4 1.06-2a6.32 6.32 0 0 1 4.26-1.45c1.82 0 3.16.48 4.03 1.43.44.48.7 1.03.73 1.65.02.26.03 1.04.03 2.36v3.8c0 2.06.04 3.18.12 3.37a.6.6 0 0 0 .6.4c.25 0 .59-.16 1-.46zm4.51.43V40.88h-2.27v-.94h5.32v1.8a5.08 5.08 0 0 1 4.29-2.16c1.55 0 2.73.5 3.54 1.54.43.56.68 1.2.76 1.93.06.55.08 1.24.08 2.08v7.39h2.26v.94h-7.34v-.94h2.03V47.5c0-3.36-.21-5.35-.62-5.95-.37-.54-.93-.81-1.68-.81-1.05 0-1.88.43-2.47 1.3a4.64 4.64 0 0 0-.66 2.1 35.48 35.48 0 0 0-.22 4.45v3.9H164v.95h-7.34v-.94h2.27m23.82-5.78c-1.6.06-2.77.32-3.47.75-1.02.61-1.53 1.45-1.53 2.53 0 .7.2 1.23.61 1.6.36.32.84.47 1.44.47 1.03 0 1.84-.48 2.42-1.46.36-.6.53-1.7.53-3.33v-.55zm4.77 5.4l.4.68a3.3 3.3 0 0 1-2.33 1.03c-1.68 0-2.62-.9-2.83-2.7a5.4 5.4 0 0 1-1.04 1.37 4.8 4.8 0 0 1-3.34 1.34 3.79 3.79 0 0 1-2.85-1.09 2.98 2.98 0 0 1-.76-2.13c0-1.78 1.03-3.1 3.08-3.95a14.3 14.3 0 0 1 4.92-.79v-2.24c0-.97-.03-1.58-.08-1.83-.2-.92-.93-1.38-2.22-1.38-.75 0-1.44.2-2.07.6-.3.18-.46.4-.46.61 0 .11.06.24.17.37.31.37.46.73.46 1.08 0 .43-.12.78-.38 1.04-.26.3-.6.44-1 .44a1.44 1.44 0 0 1-1.46-1.51c0-.73.35-1.4 1.05-2a6.32 6.32 0 0 1 4.26-1.45c1.81 0 3.15.48 4.03 1.43.44.48.7 1.03.73 1.65.02.26.04 1.04.04 2.36v3.8c0 2.06.04 3.18.12 3.37a.6.6 0 0 0 .6.4c.26 0 .6-.16 1.01-.46zm27.63-20.64h-2.75v-.94h6.44v.94h-2.73v13.07c0 2.57-.14 4.28-.42 5.1-.96 2.9-3.11 4.36-6.44 4.36a10.5 10.5 0 0 1-4.71-1.03 5.64 5.64 0 0 1-3.12-3.64c-.21-.82-.32-2.42-.32-4.8V31.5h-2.83v-.94h9.27v.93h-2.82v13.07c0 2.8.09 4.5.26 5.09a4.16 4.16 0 0 0 1.97 2.58c.83.46 1.8.69 2.9.69 2.16 0 3.66-.9 4.5-2.7.29-.6.48-1.22.59-1.86.1-.68.17-1.95.17-3.82V31.48m6.84 21.07V40.88h-2.27v-.94H225v1.8a5.08 5.08 0 0 1 4.29-2.16c1.56 0 2.74.5 3.54 1.54.43.56.69 1.2.77 1.93.05.55.08 1.24.08 2.08v7.39h2.25v.94h-7.33v-.94h2.03V47.5c0-3.36-.2-5.35-.61-5.95-.37-.54-.93-.81-1.68-.81-1.05 0-1.87.43-2.47 1.3a4.64 4.64 0 0 0-.66 2.1 35.48 35.48 0 0 0-.22 4.45v3.9H227v.95h-7.34v-.94h2.27m19.41-21.45c.6 0 1.09.22 1.44.65a2 2 0 0 1 .51 1.26c0 .53-.22 1-.66 1.43-.37.36-.8.54-1.31.54s-.94-.18-1.3-.55a1.93 1.93 0 0 1-.57-1.45c0-.56.19-1.03.56-1.42.3-.3.73-.45 1.3-.45zm-1.4 21.5V40.88h-2.26v-.94h5.31v12.6h2.26v.95h-7.57v-.94h2.27zm18.68-11.67l-4.92 12.94h-1.26l-5.18-12.94h-1.47v-.94h7.2v.94h-2.34l3.45 8.78 3.41-8.78h-2.48v-.94h4.84v.94h-1.22m10.79 3.89a10.4 10.4 0 0 0-.28-2.9c-.34-.81-1.06-1.22-2.17-1.22-1.18 0-2 .38-2.45 1.14a4.1 4.1 0 0 0-.36 1.81v1.16h5.26zm3.53.93h-8.8v.91c0 1.5.02 2.52.06 3.08.16 2.05 1.2 3.07 3.15 3.07a4.1 4.1 0 0 0 3.25-1.57c.48-.56.84-1.31 1.08-2.26h1.01a6.07 6.07 0 0 1-1.72 3.3 5.1 5.1 0 0 1-3.79 1.57 6 6 0 0 1-4.19-1.77 7.05 7.05 0 0 1-2.35-5.35c0-2.14.83-3.98 2.47-5.51a5.7 5.7 0 0 1 7.51-.41 5.82 5.82 0 0 1 2.11 3.14c.12.45.21 1.03.25 1.76zm4.1 6.85V40.88h-2.27v-.94h5.32v3.26c.91-2.4 2.14-3.6 3.67-3.6.6 0 1.08.16 1.46.47.45.38.67.88.67 1.53 0 .57-.16 1.04-.48 1.38-.31.35-.71.52-1.2.52a1.4 1.4 0 0 1-1.3-.7c-.12-.23-.2-.51-.21-.85-.03-.46-.14-.7-.33-.7-.3 0-.62.29-.95.85-.5.84-.85 1.84-1.06 2.99-.2 1.1-.3 2.6-.3 4.49v2.95h2.25v.94h-7.57v-.94h2.26m19.87-12.77l.1 4.06h-.74c-.15-.9-.52-1.6-1.09-2.1a4.25 4.25 0 0 0-2.93-1.06c-.82 0-1.49.2-2 .6a1.9 1.9 0 0 0-.85 1.57c0 .56.28.98.83 1.26.46.23 1.34.46 2.63.69 1.27.2 2.17.45 2.7.72 1.42.74 2.13 1.98 2.13 3.73a4.5 4.5 0 0 1-4.64 4.58 5.53 5.53 0 0 1-3.75-1.4l-.74 1.05h-.59l-.12-5.16h.73a8.77 8.77 0 0 0 1.23 2.89 3.9 3.9 0 0 0 3.33 1.55c1 0 1.8-.3 2.41-.9.51-.48.77-1 .77-1.54 0-.56-.2-1.01-.63-1.35-.39-.33-1.3-.6-2.75-.83-1.25-.2-2.14-.41-2.64-.62-1.5-.66-2.27-1.9-2.27-3.72a4.16 4.16 0 0 1 4.31-4.22c1.2 0 2.33.38 3.45 1.16l.45-1.01h.73m6.54-8.66c.61 0 1.1.22 1.45.65a2 2 0 0 1 .51 1.26c0 .53-.22 1-.66 1.43-.36.36-.8.54-1.3.54s-.94-.18-1.3-.55a1.96 1.96 0 0 1-.56-1.45 2 2 0 0 1 .57-1.42c.3-.3.74-.45 1.31-.45zm-1.38 21.5V40.88h-2.27v-.94h5.31v12.6h2.26v.95h-7.57v-.94h2.27zM313.5 34.7v5.07h3.41v.94h-3.41v9.72c0 .75.09 1.24.26 1.48.3.4.73.6 1.3.6.9 0 1.46-.53 1.68-1.6h.87a3.6 3.6 0 0 1-.65 1.65c-.67.86-1.65 1.28-2.95 1.28a3.56 3.56 0 0 1-2.9-1.22 2.66 2.66 0 0 1-.6-1.33c-.05-.32-.07-.96-.07-1.92v-8.65h-2.06v-.74a7.46 7.46 0 0 0 3-2 9.8 9.8 0 0 0 1.56-3.27h.53m13.69 14.88l3.18-8.7h-2.67v-.95h5.1v.94h-1.34l-7.05 19.1c-.45 1.2-1.15 2-2.09 2.4-.34.14-.7.22-1.09.22-.49 0-.92-.14-1.27-.42a1.52 1.52 0 0 1-.64-1.28 1.56 1.56 0 0 1 1.61-1.6c.62 0 1.1.24 1.45.73.18.25.35.37.5.37.25 0 .46-.25.65-.77l2.26-6.12-5.7-12.62h-1.46v-.94h7.22v.94h-2.39l3.76 8.71m31.11-7.37h-9.1v10.32h2.82v.94h-9.26v-.94h2.83V31.49h-2.83v-.94h9.26v.93h-2.82v9.8h9.1v-9.8h-2.83v-.94h9.26v.94h-2.8v21.07h2.81v.94h-9.26v-.94h2.84V42.23m16.49 2.54a10.48 10.48 0 0 0-.28-2.9c-.34-.81-1.06-1.22-2.17-1.22-1.18 0-2 .38-2.45 1.14a4.1 4.1 0 0 0-.36 1.81v1.16h5.26zm3.53.93h-8.79v.91c0 1.5.02 2.52.06 3.08.16 2.05 1.21 3.07 3.15 3.07a4.1 4.1 0 0 0 3.25-1.57c.48-.56.84-1.31 1.08-2.26h1.01a6.07 6.07 0 0 1-1.72 3.3 5.1 5.1 0 0 1-3.79 1.57 6 6 0 0 1-4.19-1.77 7.05 7.05 0 0 1-2.35-5.35c0-2.14.82-3.98 2.47-5.51a5.7 5.7 0 0 1 7.51-.41 5.87 5.87 0 0 1 2.11 3.14c.12.45.21 1.03.25 1.76zm10.16 1.02c-1.61.06-2.77.32-3.48.75-1.01.61-1.52 1.45-1.52 2.53 0 .7.2 1.23.61 1.6.35.32.83.47 1.44.47 1.03 0 1.83-.48 2.42-1.46.35-.6.53-1.7.53-3.33v-.55zm4.77 5.4l.4.68a3.33 3.33 0 0 1-2.34 1.03c-1.68 0-2.62-.9-2.83-2.7a5.31 5.31 0 0 1-1.04 1.37c-.99.9-2.1 1.34-3.35 1.34-1.2 0-2.14-.36-2.85-1.09a2.94 2.94 0 0 1-.76-2.13c0-1.78 1.03-3.1 3.08-3.95a14.3 14.3 0 0 1 4.92-.79v-2.24c0-.97-.03-1.58-.09-1.83-.2-.92-.93-1.38-2.21-1.38-.75 0-1.44.2-2.07.6-.31.18-.47.4-.47.61 0 .11.06.24.17.37.3.37.46.73.46 1.08 0 .43-.13.78-.38 1.04-.27.3-.6.44-1.01.44-.4 0-.71-.12-.98-.37a1.41 1.41 0 0 1-.48-1.14c0-.73.35-1.4 1.06-2a6.28 6.28 0 0 1 4.25-1.45c1.8 0 3.15.48 4.02 1.43.44.48.68 1.03.72 1.65.02.26.03 1.04.03 2.36v3.8c0 2.06.03 3.18.1 3.37a.6.6 0 0 0 .6.4c.26 0 .6-.16 1.02-.46zm4.37.43V31.49h-2.27v-.94h5.32v22h2.25v.94h-7.57v-.94h2.27m11.71-17.85v5.07h3.4v.94h-3.4v9.72c0 .75.08 1.24.26 1.48.29.4.73.6 1.29.6.9 0 1.47-.53 1.69-1.6h.86a3.6 3.6 0 0 1-.65 1.65c-.67.86-1.65 1.28-2.95 1.28a3.56 3.56 0 0 1-2.9-1.22 2.66 2.66 0 0 1-.6-1.33c-.05-.32-.07-.96-.07-1.92v-8.65h-2.06v-.74a7.46 7.46 0 0 0 3-2 9.8 9.8 0 0 0 1.56-3.27h.53m8.1 17.84V31.49h-2.27v-.94h5.32v11.81c.43-.68.84-1.18 1.23-1.48a5.93 5.93 0 0 1 3.79-1.24c1.6 0 2.77.4 3.47 1.24.32.39.53.88.63 1.46.05.34.08 1.08.08 2.22v7.98h2.25v.94h-7.36v-.94h2.05v-7.98c0-1.16-.02-1.87-.07-2.15-.17-1.02-.86-1.53-2.07-1.53-.95 0-1.78.3-2.47.92a4.21 4.21 0 0 0-1.36 2.52c-.13.77-.2 1.9-.2 3.38v4.84h2.03v.94h-7.35v-.94h2.26" fill="#1A1919"/><path fill="#000" fill-rule="nonzero" d="M.64.82V72.3h63.99V.82H.64"/><path fill="#FFF" fill-rule="nonzero" d="M1.49 1.65v69.82h62.29V1.65"/><path fill="#000" fill-rule="nonzero" d="M3.62 3.72V69.4h58.02V3.72"/><path d="M15.97 58.61l-.04-.35-3.45.05.05.35c.97 0 1.13.25 1.13 1.75l.05.72-3.33.05v-.75c0-1.49.17-1.74 1.18-1.78l-.05-.33-3.46.04.06.36c.98 0 1.13.26 1.13 1.75v2.5c0 1.5-.15 1.74-1.17 1.8l.05.35 3.45-.03-.04-.35c-.97 0-1.13-.25-1.13-1.76l-.04-1.09 3.34-.03V63c0 1.52-.17 1.77-1.19 1.82l.05.36H16l-.04-.4c-.96 0-1.13-.25-1.13-1.77v-2.53c0-1.6.21-1.75 1.16-1.8l.05-.05H16zm7.12 4.5l-.07.3c-.17.72-.34.96-1.68.96h-.17c-.98 0-1.14-.24-1.14-1.75l-.04-.86h.1c1.43 0 1.55.17 1.6 1.23l.34-.05-.05-3.06-.34.05c0 1-.11 1.17-1.57 1.17l-.05.05-.04-2.27h.99c1.32 0 1.5.26 1.66.96l.1.34.37-.05-.16-1.9-5.26.06.03.35c.97 0 1.13.25 1.13 1.74v2.48c0 1.52-.16 1.77-1.18 1.8l.05.36h5.6l.07-1.84v-.11l-.34.03.06-.03h-.05zm7.97.2L28.8 58l-.24.03-2.19 5.28c-.47 1.14-.6 1.3-1.53 1.35l.05.37 2.86-.05-.04-.38c-.55 0-.82-.05-.92-.2-.1-.17-.02-.43.18-.92l.26-.7 2.41-.05.3.7c.22.5.26.75.16.9-.08.14-.37.2-.94.25l.05.36h3.38l-.03-.41c-.74 0-.92-.17-1.4-1.33l-.05.05-.03.04zm-3.57-1.1l.93-2.24.68 1.57.25.63-1.38.04h-.52zm12.15.9l-.06.3c-.19.73-.36.96-1.68.96h-.53c-.97 0-1.13-.24-1.13-1.75V60.4c0-1.49.16-1.74 1.17-1.79l-.05-.35-3.46.05.05.36c.97 0 1.13.25 1.13 1.75v2.49c0 1.51-.17 1.77-1.18 1.8l.04.36h5.97l.05-1.86v-.08l-.36.03h.06l.02-.04zm1.3-4.81l-.07 1.84v.1l.34-.03.07-.31c.17-.72.3-.96 1.62-.96l.8-.04v3.98c0 1.49-.17 1.76-1.19 1.8l.05.35h3.5l-.06-.41c-.97 0-1.14-.25-1.14-1.77l-.04-3.93h.86c1.32 0 1.44.22 1.63.95l.12.35.34-.05-.14-1.95-6.67.03-.02.03.05-.03zm15.14 4.57V60.4c0-1.57.23-1.74 1.18-1.79l-.05-.35-3.46.05.05.36c.97 0 1.13.25 1.13 1.75l.05.71-3.34.05v-.74c0-1.49.16-1.74 1.18-1.78l-.05-.33-3.46.04.06.36c.97 0 1.13.25 1.13 1.75v2.47c0 1.53-.17 1.76-1.18 1.81l.04.36 3.46-.03-.05-.35c-.97 0-1.13-.25-1.13-1.76l-.04-1.09 3.34-.03V63c0 1.52-.17 1.77-1.18 1.82l.05.36h3.45l-.04-.4c-.96 0-1.13-.26-1.13-1.77v-.07l.04-.03z" fill="#FFF" fill-rule="nonzero"/><path fill="#981E33" fill-rule="nonzero" d="M9.6 9.5v42.01h46.07V9.5H9.6"/><g fill-rule="nonzero"><path fill="url(#a)" d="M.28.48V3.9h10.89V.48" transform="translate(26.896 14.82)"/><path fill="url(#b)" d="M.28 2.18v1.73h10.89V2.18" transform="translate(26.896 14.82)"/><path fill="url(#c)" d="M5.72 2.18v1.73h5.45V2.18" transform="translate(26.896 14.82)"/><path fill="url(#d)" d="M.28.48l2.13 1.69L.27 3.9V.47" transform="translate(26.896 14.82)"/><path fill="url(#e)" d="M11.17.48l-2.13 1.7 2.14 1.72V.48" transform="translate(26.896 14.82)"/></g><g fill-rule="nonzero"><path fill="url(#f)" d="M.63.29V3.7H11.5V.29H.63" transform="translate(14.912 19.8)"/><path fill="url(#g)" d="M.63 1.99V3.7H11.5V2H.63" transform="translate(14.912 19.8)"/><path fill="url(#h)" d="M6.07 1.99V3.7h5.44V2H6.07" transform="translate(14.912 19.8)"/><path fill="url(#i)" d="M.63.29l2.13 1.7L.63 3.7" transform="translate(14.912 19.8)"/><path fill="url(#j)" d="M11.51.29L9.4 1.99l2.12 1.72V.29" transform="translate(14.912 19.8)"/></g><g fill-rule="nonzero"><path fill="url(#k)" d="M.8.29V3.7h10.88V.29" transform="translate(38.023 19.8)"/><path fill="url(#l)" d="M.8 1.99V3.7h10.88V2" transform="translate(38.023 19.8)"/><path fill="url(#m)" d="M6.24 1.99V3.7h5.44V2H6.24" transform="translate(38.023 19.8)"/><path fill="url(#n)" d="M.8.3L2.92 2 .79 3.7V.31" transform="translate(38.023 19.8)"/><path fill="url(#o)" d="M11.68.29l-2.13 1.7 2.13 1.72V.29" transform="translate(38.023 19.8)"/></g><path fill="url(#p)" fill-rule="nonzero" d="M47.15 42.41l-3.26-1.96-3.22-1.16v-16.5l3.23-1.74 3.25 1.74v19.6" transform="translate(.36 .715)"/><path fill="url(#q)" fill-rule="nonzero" d="M47.15 42.41l-3.26-1.96V21.07l3.26 1.74" transform="translate(.36 .715)"/><path fill="url(#r)" fill-rule="nonzero" d="M43.9 45.59h-8.34l-3.29-3.19 3.3-3.12h5.1l1.61 3.12 1.63 3.17" transform="translate(.36 .715)"/><path fill="#FFF" fill-rule="nonzero" d="M44.26 41.16l-1.62 1.96H32.62l3.3-3.12h5.1l3.24 1.17"/><path fill="url(#s)" fill-rule="nonzero" d="M42.27 42.41H32.26l3.29-3.13h5.12l1.6 3.11" transform="translate(.36 .715)"/><path fill="url(#t)" fill-rule="nonzero" d="M42.27 42.41l1.63 3.18 3.26-3.18-3.26-1.96-1.62 1.97" transform="translate(.36 .715)"/><path fill="url(#u)" fill-rule="nonzero" d="M26.82 50.78v3.43H37.7v-3.43" transform="translate(.36 .715)"/><path fill="url(#v)" fill-rule="nonzero" d="M26.82 52.49v1.72H37.7v-1.73" transform="translate(.36 .715)"/><path fill="url(#w)" fill-rule="nonzero" d="M26.82 52.49v1.72h5.44v-1.73" transform="translate(.36 .715)"/><path fill="url(#x)" fill-rule="nonzero" d="M37.7 50.78l-2.13 1.71 2.13 1.72v-3.43" transform="translate(.36 .715)"/><path fill="url(#y)" fill-rule="nonzero" d="M26.82 50.78l2.12 1.71-2.12 1.72" transform="translate(.36 .715)"/><path fill="url(#z)" fill-rule="nonzero" d="M35.56 39.28l-3.3 3.13V16.28L35.58 18l-.02 21.27" transform="translate(.36 .715)"/><path fill="url(#A)" fill-rule="nonzero" d="M28.97 39.28l3.3 3.13V16.28L28.96 18l.01 21.27" transform="translate(.36 .715)"/><path fill="url(#B)" fill-rule="nonzero" d="M35.55 50.78l-3.29 1.7V42.41l3.3 3.17v5.2" transform="translate(.36 .715)"/><path fill="url(#C)" fill-rule="nonzero" d="M28.97 50.78l3.3 1.7.01-10.07L29 45.58v5.2" transform="translate(.36 .715)"/><path fill="url(#D)" fill-rule="nonzero" d="M17.38 42.41l3.24-1.96 3.24-1.16V22.77l-3.24-1.7-3.25 1.73" transform="translate(.36 .715)"/><path fill="url(#E)" fill-rule="nonzero" d="M17.38 42.41l3.24-1.96V21.07l-3.25 1.73" transform="translate(.36 .715)"/><path fill="url(#F)" fill-rule="nonzero" d="M20.61 45.59h8.36l3.3-3.19-3.29-3.12h-5.1l-3.26 6.3" transform="translate(.36 .715)"/><path fill="url(#G)" fill-rule="nonzero" d="M20.62 40.45l1.63 1.96h10.01l-3.29-3.13h-5.11l-3.24 1.16" transform="translate(.36 .715)"/><path fill="url(#H)" fill-rule="nonzero" d="M22.25 42.41h10.01l-3.28-3.13h-5.12l-1.6 3.13" transform="translate(.36 .715)"/><path fill="url(#I)" fill-rule="nonzero" d="M22.25 42.41l-1.63 3.18-3.25-3.19 3.26-1.95 1.62 1.96" transform="translate(.36 .715)"/><path d="M35.95 17.03h-6.66l-2.11-1.7v-.04h.04l2.09 1.68h6.62l2.09-1.66h.04v.03l-2.12 1.69"/><path fill="#FFF" fill-rule="nonzero" opacity=".5" d="M27.21 15.3l2.1 1.68h6.62l2.1-1.69h.03v.03L35.94 17H29.3l-2.11-1.69v-.02"/><path fill="#FFF" fill-rule="nonzero" d="M29.3 17l-2.12-1.7h.01l2.12 1.7h6.62l2.12-1.7h.01v.02L35.94 17H29.3"/><path d="M42.64 43.16H22.61l-1.66-1.98.06-.03 1.62 1.94h20l1.6-1.95.07.03-1.65 1.98"/><path fill="#FFF" fill-rule="nonzero" opacity=".5" d="M20.97 41.17h.04l1.61 1.94h20.02l1.6-1.94.01-.01h.03v.01l-1.63 1.96H22.6l-1.63-1.97z"/><path fill="#FFF" fill-rule="nonzero" d="M22.61 43.14l-1.64-1.97H21l1.63 1.94h20.02l1.63-1.95h.01l-1.63 1.98H22.62"/><path d="M35.95 53.22h-6.66l-2.11-1.68v-.04h.04l2.09 1.66h6.62l2.09-1.66h.04v.05l-2.1 1.67"/><path fill="#FFF" fill-rule="nonzero" opacity=".5" d="M27.21 51.5l2.1 1.67h6.62l2.1-1.66h.04v.03l-2.12 1.68H29.3l-2.12-1.68v-.02"/><path fill="#FFF" fill-rule="nonzero" d="M29.3 53.2l-2.12-1.69h.01l2.12 1.68h6.62l2.12-1.67h.02l-2.12 1.68h-6.64"/><path d="M21 41.16l-.05.02V21.8h.06"/><path fill="#FFF" fill-rule="nonzero" opacity=".5" d="M21 21.79v19.37l-.04.01V21.8H21"/><path fill="#FFF" fill-rule="nonzero" d="M20.96 41.17V21.8H21v19.38"/><path d="M24.3 21.82h-6.65l-2.11-1.7v-.03h.04l2.08 1.66h6.6l2.1-1.66h.04v.03l-2.11 1.7"/><path fill="#FFF" fill-rule="nonzero" opacity=".5" d="M15.56 20.09l2.1 1.68h6.62l2.11-1.68h.03v.03L24.3 21.8h-6.65l-2.12-1.7v-.01h.02"/><path fill="#FFF" fill-rule="nonzero" d="M17.66 21.79l-2.12-1.7h.01l2.12 1.68h6.62l2.12-1.69h.01l-2.12 1.7h-6.64"/><path d="M47.58 21.8h-6.65l-2.11-1.68v-.03h.04l2.1 1.66h6.6l2.1-1.66h.03v.03l-2.12 1.67"/><path fill="#FFF" fill-rule="nonzero" opacity=".5" d="M38.84 20.09l2.1 1.66h6.62l2.1-1.66h.02v.02l-2.1 1.69h-6.64l-2.12-1.68v-.02h.02"/><path fill="#FFF" fill-rule="nonzero" d="M40.93 21.79l-2.11-1.7h.02l2.12 1.67h6.62l2.12-1.67h.02l-2.14 1.68h-6.64"/></g></svg>